<svg width="300" height="300" viewBox="0 0 300 300" fill="none" xmlns="http://www.w3.org/2000/svg">
<path d="M231.738 46.338C231.738 46.338 204.204 23.85 168.39 33.822C132.576 43.794 117.582 74.622 97.044 95.856C86.286 106.962 70.398 111.054 57.618 119.604C16.758 146.94 22.818 208.404 54.318 231.588C81.594 251.658 115.674 253.758 160.032 238.956C204.39 224.154 236.124 215.256 263.628 172.854C291.132 130.452 265.656 76.86 231.738 46.338Z" fill="white"/>
<path opacity="0.7" d="M231.738 46.338C231.738 46.338 204.204 23.85 168.39 33.822C132.576 43.794 117.582 74.622 97.044 95.856C86.286 106.962 70.398 111.054 57.618 119.604C16.758 146.94 22.818 208.404 54.318 231.588C81.594 251.658 115.674 253.758 160.032 238.956C204.39 224.154 236.124 215.256 263.628 172.854C291.132 130.452 265.656 76.86 231.738 46.338Z" fill="white"/>
<path d="M237 275.4H61.8L79.32 250.2H219.48L237 275.4Z" fill="#707AAE" stroke="#707AAE" stroke-linecap="round" stroke-linejoin="round"/>
<path d="M243.084 241.548C243.084 241.548 225.36 214.518 228 208.314C230.64 202.11 240 212.748 240 212.748C240 212.748 226.26 176.412 235.566 168.432C244.872 160.452 247.974 201.228 247.974 201.228C247.974 201.228 256.374 177.738 263.04 186.6C269.706 195.462 252.84 214.074 252.84 214.074C252.84 214.074 264.36 214.518 261.24 222.054C258.12 229.59 249.72 237.564 249.72 237.564L243.084 241.548Z" fill="white"/>
<path d="M238.2 235.344C238.2 235.344 227.568 220.278 232.884 217.176C238.2 214.074 240.858 223.38 240.858 223.38C240.858 223.38 241.302 182.616 249.726 185.718C258.15 188.82 255.042 213.63 255.042 213.63C255.042 213.63 265.674 206.544 265.242 216.732C264.81 226.92 250.614 235.8 250.614 235.8" stroke="#707AAE" stroke-linecap="round" stroke-linejoin="round"/>
<path d="M247.956 236.232L238.65 226.038" stroke="#707AAE" stroke-linecap="round" stroke-linejoin="round"/>
<path d="M248.4 241.104L247.956 215.85" stroke="#707AAE" stroke-linecap="round" stroke-linejoin="round"/>
<path d="M248.844 232.686L257.262 221.61" stroke="#707AAE" stroke-linecap="round" stroke-linejoin="round"/>
<path d="M256.374 233.574H232.89L235.236 254.4H254.028L256.374 233.574Z" fill="#707AAE" stroke="#707AAE" stroke-linecap="round" stroke-linejoin="round"/>
<path d="M54.684 241.548C54.684 241.548 36.96 214.518 39.6 208.314C42.24 202.11 51.6 212.748 51.6 212.748C51.6 212.748 37.842 176.4 47.148 168.432C56.454 160.464 59.556 201.228 59.556 201.228C59.556 201.228 67.956 177.738 74.622 186.6C81.288 195.462 64.422 214.074 64.422 214.074C64.422 214.074 75.942 214.518 72.822 222.054C69.702 229.59 61.302 237.564 61.302 237.564L54.684 241.548Z" fill="white"/>
<path d="M51.09 235.68C51.09 235.68 40.074 225.33 39.738 220.68C39.402 216.03 46.752 221.682 49.752 223.68C52.752 225.678 42.078 210.66 42.408 199.644C42.738 188.628 48.75 192.972 50.754 197.646C52.758 202.32 53.754 206.646 54.762 207.66C55.77 208.674 57.432 199.98 61.77 202.314C68.706 206.052 57.432 218.67 59.766 221.01C62.1 223.35 67.446 210.996 70.116 217.674C72.786 224.352 61.434 236.364 61.434 236.364" stroke="#707AAE" stroke-linecap="round" stroke-linejoin="round"/>
<path d="M58.098 235.008L49.752 209.976" stroke="#707AAE" stroke-linecap="round" stroke-linejoin="round"/>
<path d="M53.76 222.324L57.096 214.65" stroke="#707AAE" stroke-linecap="round" stroke-linejoin="round"/>
<path d="M47.082 227.334L56.43 229.668L61.104 226.332" stroke="#707AAE" stroke-linecap="round" stroke-linejoin="round"/>
<path d="M67.974 233.574H44.49L46.836 254.4H65.628L67.974 233.574Z" fill="#707AAE" stroke="#707AAE" stroke-linecap="round" stroke-linejoin="round"/>
<path d="M135.402 176.4C135.402 176.4 126.6 177.198 123.402 171.6C120.204 166.002 125.802 159.198 119.802 156.798C113.802 154.398 106.602 162.402 94.602 155.598C82.602 148.794 88.998 139.998 92.202 133.2C95.406 126.402 97.002 123.198 89.4 118.8C81.798 114.402 73.398 101.598 78.6 89.202C83.802 76.806 97.002 82.398 103.8 76.002C110.598 69.606 104.598 61.998 104.202 51.6C103.806 41.202 117.798 33.198 131.4 35.202C145.002 37.206 147.798 51.6 147.798 60.798C147.798 69.996 162.198 72.402 169.002 61.998C175.806 51.594 181.398 49.2 191.4 53.598C201.402 57.996 193.002 72.798 197.802 75.198C202.602 77.598 206.598 66 220.998 72.798C235.398 79.596 227.4 97.596 220.2 102C209.724 108.414 222.078 120.852 224.064 128.466C226.974 139.596 218.016 148.5 207 148.002C189.402 147.198 184.998 144.402 181.398 149.598C177.798 154.794 189 156 187.398 164.4C185.796 172.8 182.598 175.998 175.398 175.998C168.198 175.998 163.8 169.602 156.198 172.8C148.596 175.998 139.002 178.398 135.402 176.4Z" fill="#707AAE" stroke="#707AAE" stroke-linecap="round" stroke-linejoin="round"/>
<path d="M121.5 233.7C120.21 238.486 119.753 243.459 120.15 248.4C120.9 256.05 124.8 260.1 141.75 262.65C158.7 265.2 170.4 263.1 179.85 258.6C189.3 254.1 187.158 237.954 184.704 234.252C182.25 230.55 172.8 229.8 157.5 231.15C142.2 232.5 132.75 230.1 127.2 231C121.65 231.9 121.5 233.7 121.5 233.7Z" fill="#696969" stroke="#707AAE" stroke-linecap="round" stroke-linejoin="round"/>
<path opacity="0.3" d="M175.5 236.1C175.5 236.1 167.4 238.2 161.7 239.7C156 241.2 155.4 241.8 160.5 242.4C165.6 243 175.2 242.4 175.2 242.4C175.2 242.4 161.7 248.7 154.5 250.2C147.3 251.7 134.1 246.9 132.6 245.7C131.1 244.5 138.9 244.5 141 243.6C143.1 242.7 141.9 241.5 134.4 240.3C126.9 239.1 128.4 246 135 250.8C141.6 255.6 145.5 257.1 154.05 255.6C162.6 254.1 174.3 250.5 178.2 243.3C182.1 236.1 175.5 236.1 175.5 236.1Z" fill="#C8D7EC"/>
<path d="M117.678 188.07L116.682 208.11C116.682 208.11 114.882 212.766 118.122 215.754C121.362 218.742 125.538 217.86 127.722 213.984C129.906 210.108 129.606 201.138 130.158 197.592C130.71 194.046 126.396 190.392 122.85 189.066C119.304 187.74 117.678 188.07 117.678 188.07Z" fill="white" stroke="#707AAE" stroke-linecap="round" stroke-linejoin="round"/>
<path d="M187.842 188.07L188.838 208.11C188.838 208.11 190.608 212.766 187.398 215.754C184.188 218.742 179.976 217.86 177.762 213.984C175.548 210.108 175.878 201.138 175.326 197.592C174.774 194.046 179.094 190.392 182.634 189.066C186.174 187.74 187.842 188.07 187.842 188.07Z" fill="white" stroke="#707AAE" stroke-linecap="round" stroke-linejoin="round"/>
<path d="M144.792 158.208C144.792 158.208 145.17 166.548 143.148 170.082C141.126 173.616 134.682 173.4 130.518 173.4C126.354 173.4 120.156 176.808 118.134 180.222C116.609 183.021 115.301 185.934 114.222 188.934L128.118 196.386C128.118 196.386 126.6 199.296 128.118 203.586C129.636 207.876 131.904 209.526 131.274 211.674C130.644 213.822 122.43 229.104 121.674 231.504C121.292 232.615 120.997 233.755 120.792 234.912C120.792 234.912 138.348 238.326 153.63 237.822C168.912 237.318 184.704 234.282 184.704 234.282C184.704 234.282 180.03 226.074 177.504 221.4C174.978 216.726 172.704 211.926 173.208 210.282C173.712 208.638 176.622 204.222 176.496 196.512C176.496 196.512 187.734 193.608 191.904 188.934C191.904 188.934 186.978 176.682 181.926 174.66C176.874 172.638 171.066 174.66 166.926 173.526C162.786 172.392 160.608 170.364 159.978 168.852C159.348 167.34 158.712 160.26 158.964 158.622L144.792 158.208Z" fill="white" stroke="#707AAE" stroke-linecap="round" stroke-linejoin="round"/>
<path opacity="0.3" d="M132 207C132 207 127.8 202.5 132.6 201.9C137.4 201.3 144.3 206.1 151.8 207.9C159.3 209.7 168.3 201.6 172.2 202.8C176.1 204 173.7 210 169.5 212.7C165.3 215.4 153.6 215.1 147 214.8C140.4 214.5 137.1 212.7 132 207Z" fill="#C8D7EC"/>
<path d="M137.4 209.784C137.4 209.784 139.686 211.614 145.8 211.614C151.914 211.614 156.6 208.872 160.884 209.634" stroke="#707AAE" stroke-linecap="round" stroke-linejoin="round"/>
<path d="M134.808 210.24C134.808 210.24 137.394 212.376 142.728 212.526" stroke="#707AAE" stroke-linecap="round" stroke-linejoin="round"/>
<path d="M128.118 196.356C128.118 196.356 128.556 194.094 131.454 191.958" stroke="#707AAE" stroke-linecap="round" stroke-linejoin="round"/>
<path d="M176.496 196.482C176.496 196.482 175.482 192.114 172.74 191.196" stroke="#707AAE" stroke-linecap="round" stroke-linejoin="round"/>
<path d="M152.874 188.904C162.756 188.514 165.858 179.004 166.83 173.478C162.708 172.338 160.578 170.328 159.948 168.822C159.318 167.316 158.682 160.23 158.934 158.592L144.792 158.208C144.792 158.208 145.17 166.548 143.148 170.082C142.116 171.882 139.92 172.71 137.466 173.082C138.402 177.048 142.2 189.33 152.874 188.904Z" fill="white"/>
<mask id="mask0_14_72" style="mask-type:luminance" maskUnits="userSpaceOnUse" x="137" y="158" width="30" height="31">
<path d="M152.874 188.904C162.756 188.514 165.858 179.004 166.83 173.478C162.708 172.338 160.578 170.328 159.948 168.822C159.318 167.316 158.682 160.23 158.934 158.592L144.792 158.208C144.792 158.208 145.17 166.548 143.148 170.082C142.116 171.882 139.92 172.71 137.466 173.082C138.402 177.048 142.2 189.33 152.874 188.904Z" fill="white"/>
</mask>
<g mask="url(#mask0_14_72)">
<path opacity="0.3" d="M159.18 164.436C158.928 162.499 158.846 160.543 158.934 158.592L144.792 158.208C144.866 160.357 144.792 162.508 144.57 164.646C147.054 166.272 152.088 168.216 159.18 164.436Z" fill="#C8D7EC"/>
</g>
<path d="M152.874 188.904C162.756 188.514 165.858 179.004 166.83 173.478C162.708 172.338 160.578 170.328 159.948 168.822C159.318 167.316 158.682 160.23 158.934 158.592L144.792 158.208C144.792 158.208 145.17 166.548 143.148 170.082C142.116 171.882 139.92 172.71 137.466 173.082C138.402 177.048 142.2 189.33 152.874 188.904Z" stroke="#707AAE" stroke-linecap="round" stroke-linejoin="round"/>
<path d="M138.792 141C138.792 141 136.992 138.066 135.222 139.854C133.452 141.642 135.222 145.206 136.368 146.862C137.514 148.518 139.68 149.79 140.19 149.154C140.7 148.518 138.792 141 138.792 141Z" fill="white" stroke="#707AAE" stroke-linecap="round" stroke-linejoin="round"/>
<path d="M166.44 140.736C166.44 140.736 168.99 137.424 170.394 140.61C171.798 143.796 167.994 148.638 166.194 149.532C164.394 150.426 165.3 147.492 165.426 146.472C165.552 145.452 166.44 140.736 166.44 140.736Z" fill="white" stroke="#707AAE" stroke-linecap="round" stroke-linejoin="round"/>
<path d="M137.4 129.78C137.4 129.78 138.294 141.888 138.93 148.002C139.566 154.116 141.846 159.6 148.854 161.4C155.862 163.2 161.454 160.764 163.512 156.684C165.57 152.604 166.698 144.834 166.698 138.462V128.262C166.698 128.262 148.602 123.156 137.4 129.78Z" fill="white" stroke="#707AAE" stroke-linecap="round" stroke-linejoin="round"/>
<path d="M150.894 147.108C151.542 147.538 152.286 147.802 153.06 147.876C153.871 147.792 154.654 147.529 155.352 147.108" stroke="#707AAE" stroke-linecap="round" stroke-linejoin="round"/>
<path d="M149.238 151.062C149.238 151.062 152.424 153.102 157.038 150.804" stroke="#707AAE" stroke-linecap="round" stroke-linejoin="round"/>
<path d="M144.144 140.736C144.144 140.736 146.82 140.358 148.344 141.378" stroke="#707AAE" stroke-width="2" stroke-linecap="round" stroke-linejoin="round"/>
<path d="M156.63 141.246C156.63 141.246 159.18 139.974 161.598 141.12" stroke="#707AAE" stroke-width="2" stroke-linecap="round" stroke-linejoin="round"/>
<path d="M138.156 139.578C139.03 138.104 139.713 136.526 140.19 134.88C140.965 132.726 141.206 130.416 140.892 128.148C139.681 128.585 138.512 129.131 137.4 129.78C137.4 129.78 137.736 134.526 138.156 139.578Z" fill="#707AAE" stroke="#707AAE" stroke-linecap="round" stroke-linejoin="round"/>
<path d="M166.692 138.564C166.692 138.522 166.692 138.486 166.692 138.444V128.244C166.692 128.244 165.444 127.896 163.41 127.5C163.542 129.48 164.136 135.45 166.692 138.564Z" fill="#707AAE" stroke="#707AAE" stroke-linecap="round" stroke-linejoin="round"/>
<path d="M143.124 136.278C143.124 136.278 145.29 133.35 149.874 134.238" stroke="#707AAE" stroke-linecap="round" stroke-linejoin="round"/>
<path d="M156.372 134.622C157.418 134.239 158.547 134.144 159.642 134.345C160.738 134.547 161.759 135.038 162.6 135.768" stroke="#707AAE" stroke-linecap="round" stroke-linejoin="round"/>
<path d="M154.05 255.6C154.05 255.6 148.2 255.6 137.7 245.25C127.2 234.9 120.6 226.2 112.5 222.6C104.4 219 96.6 226.95 97.05 235.5C97.5 244.05 103.8 256.05 122.55 262.95C141.3 269.85 157.35 267 159 267C160.65 267 168.75 271.05 173.55 271.5C176.192 271.783 178.858 271.783 181.5 271.5C181.5 271.5 182.85 271.65 183.6 271.65C184.35 271.65 185.25 270.75 185.25 270.75C185.25 270.75 186.768 271.146 187.368 270.096C187.968 269.046 187.5 268.65 187.5 268.65C187.5 268.65 190.068 268.872 190.968 267.222C191.868 265.572 190.584 265.638 190.584 265.638C190.584 265.638 192.342 265.296 192.3 263.88C192.333 263.353 192.23 262.826 192 262.35C192 262.35 193.05 260.7 192.6 259.35C192.15 258 190.5 257.55 188.85 258.3C187.2 259.05 179.25 258.75 172.8 258.3C166.35 257.85 154.05 255.6 154.05 255.6Z" fill="white" stroke="#707AAE" stroke-linecap="round" stroke-linejoin="round"/>
<path d="M151.44 255C148.764 254.034 144.096 251.574 137.7 245.268C127.2 234.9 120.6 226.2 112.5 222.6C104.4 219 96.6 226.95 97.05 235.5C97.5 244.05 103.8 256.05 122.55 262.95C129.543 265.504 136.873 267.018 144.306 267.444C151.122 264.6 151.758 258.6 151.44 255Z" fill="#696969"/>
<mask id="mask1_14_72" style="mask-type:luminance" maskUnits="userSpaceOnUse" x="97" y="221" width="55" height="47">
<path d="M151.44 255C148.764 254.034 144.096 251.574 137.7 245.268C127.2 234.9 120.6 226.2 112.5 222.6C104.4 219 96.6 226.95 97.05 235.5C97.5 244.05 103.8 256.05 122.55 262.95C129.543 265.504 136.873 267.018 144.306 267.444C151.122 264.6 151.758 258.6 151.44 255Z" fill="white"/>
</mask>
<g mask="url(#mask1_14_72)">
<path opacity="0.3" d="M148.89 264.204C145.932 263.082 142.476 261.882 138.6 260.7C124.8 256.5 114.6 251.4 107.7 243.6C100.8 235.8 103.2 225.9 103.2 225.9L101.61 224.46C100.083 225.85 98.8828 227.561 98.0945 229.47C97.3062 231.378 96.9495 233.437 97.05 235.5C97.5 244.05 103.8 256.05 122.55 262.95C129.543 265.504 136.873 267.018 144.306 267.444C146.07 266.744 147.641 265.633 148.89 264.204Z" fill="#C8D7EC"/>
</g>
<path d="M151.44 255C148.764 254.034 144.096 251.574 137.7 245.268C127.2 234.9 120.6 226.2 112.5 222.6C104.4 219 96.6 226.95 97.05 235.5C97.5 244.05 103.8 256.05 122.55 262.95C129.543 265.504 136.873 267.018 144.306 267.444C151.122 264.6 151.758 258.6 151.44 255Z" stroke="#707AAE" stroke-linecap="round" stroke-linejoin="round"/>
<path d="M192 262.35C191.54 262.143 191.039 262.042 190.534 262.054C190.029 262.067 189.534 262.192 189.084 262.422" fill="white"/>
<path d="M192 262.35C191.54 262.143 191.039 262.042 190.534 262.054C190.029 262.067 189.534 262.192 189.084 262.422" stroke="#707AAE" stroke-linecap="round" stroke-linejoin="round"/>
<path d="M190.584 265.638C189.809 265.357 188.959 265.357 188.184 265.638H190.584Z" fill="white"/>
<path d="M190.584 265.638C189.809 265.357 188.959 265.357 188.184 265.638" stroke="#707AAE" stroke-linecap="round" stroke-linejoin="round"/>
<path d="M187.5 268.65C186.946 268.233 186.26 268.031 185.568 268.08L187.5 268.65Z" fill="white"/>
<path d="M187.5 268.65C186.946 268.233 186.26 268.031 185.568 268.08" stroke="#707AAE" stroke-linecap="round" stroke-linejoin="round"/>
<path d="M185.094 270.6C185.094 270.6 184.452 269.442 183.51 269.442L185.094 270.6Z" fill="white"/>
<path d="M185.094 270.6C185.094 270.6 184.452 269.442 183.51 269.442" stroke="#707AAE" stroke-linecap="round" stroke-linejoin="round"/>
<path d="M147.396 255.6C147.396 255.6 153.246 255.6 163.746 245.25C174.246 234.9 180.846 226.2 188.946 222.6C197.046 219 204.846 226.95 204.396 235.5C203.946 244.05 197.646 256.05 178.896 262.95C160.146 269.85 144.096 267 142.446 267C140.796 267 132.696 271.05 127.896 271.5C125.254 271.783 122.588 271.783 119.946 271.5C119.946 271.5 118.596 271.65 117.846 271.65C117.096 271.65 116.196 270.75 116.196 270.75C116.196 270.75 114.678 271.146 114.078 270.096C113.478 269.046 113.946 268.65 113.946 268.65C113.946 268.65 111.372 268.872 110.472 267.222C109.572 265.572 110.856 265.638 110.856 265.638C110.856 265.638 109.098 265.296 109.14 263.88C109.105 263.352 109.211 262.824 109.446 262.35C109.446 262.35 108.396 260.7 108.846 259.35C109.296 258 110.946 257.55 112.596 258.3C114.246 259.05 122.196 258.75 128.646 258.3C135.096 257.85 147.396 255.6 147.396 255.6Z" fill="white" stroke="#707AAE" stroke-linecap="round" stroke-linejoin="round"/>
<path d="M150 255C152.67 254.034 157.338 251.574 163.74 245.268C174.24 234.918 180.84 226.218 188.94 222.618C197.04 219.018 204.84 226.968 204.39 235.518C203.94 244.068 197.64 256.068 178.89 262.968C171.895 265.523 164.563 267.037 157.128 267.462C150.318 264.6 149.688 258.6 150 255Z" fill="#696969"/>
<mask id="mask2_14_72" style="mask-type:luminance" maskUnits="userSpaceOnUse" x="149" y="221" width="56" height="47">
<path d="M150 255C152.67 254.034 157.338 251.574 163.74 245.268C174.24 234.918 180.84 226.218 188.94 222.618C197.04 219.018 204.84 226.968 204.39 235.518C203.94 244.068 197.64 256.068 178.89 262.968C171.895 265.523 164.563 267.037 157.128 267.462C150.318 264.6 149.688 258.6 150 255Z" fill="white"/>
</mask>
<g mask="url(#mask2_14_72)">
<path opacity="0.3" d="M204.396 235.5C204.708 229.542 201.012 223.884 195.996 222.21L193.8 223.8C193.8 223.8 201.3 228.3 199.5 237C197.7 245.7 183 254.7 171.3 259.5C165.475 261.783 159.496 263.654 153.408 265.098C154.502 266.094 155.763 266.888 157.134 267.444C164.569 267.019 171.901 265.505 178.896 262.95C197.646 256.05 203.946 244.05 204.396 235.5Z" fill="#C8D7EC"/>
</g>
<path d="M150 255C152.67 254.034 157.338 251.574 163.74 245.268C174.24 234.918 180.84 226.218 188.94 222.618C197.04 219.018 204.84 226.968 204.39 235.518C203.94 244.068 197.64 256.068 178.89 262.968C171.895 265.523 164.563 267.037 157.128 267.462C150.318 264.6 149.688 258.6 150 255Z" stroke="#707AAE" stroke-linecap="round" stroke-linejoin="round"/>
<path d="M109.446 262.35C109.906 262.143 110.407 262.042 110.912 262.054C111.417 262.067 111.912 262.192 112.362 262.422" fill="white"/>
<path d="M109.446 262.35C109.906 262.143 110.407 262.042 110.912 262.054C111.417 262.067 111.912 262.192 112.362 262.422" stroke="#707AAE" stroke-linecap="round" stroke-linejoin="round"/>
<path d="M110.856 265.638C111.631 265.357 112.481 265.357 113.256 265.638H110.856Z" fill="white"/>
<path d="M110.856 265.638C111.631 265.357 112.481 265.357 113.256 265.638" stroke="#707AAE" stroke-linecap="round" stroke-linejoin="round"/>
<path d="M113.946 268.65C114.5 268.233 115.186 268.031 115.878 268.08L113.946 268.65Z" fill="white"/>
<path d="M113.946 268.65C114.5 268.233 115.186 268.031 115.878 268.08" stroke="#707AAE" stroke-linecap="round" stroke-linejoin="round"/>
<path d="M116.352 270.6C116.352 270.6 117 269.4 117.936 269.4L116.352 270.6Z" fill="white"/>
<path d="M116.352 270.6C116.352 270.6 117 269.4 117.936 269.4" stroke="#707AAE" stroke-linecap="round" stroke-linejoin="round"/>
<path d="M120.222 209.442C120.222 209.442 118.008 208.998 114.024 210.99C110.04 212.982 106.38 216.528 104.274 217.746C102.168 218.964 100.734 219.744 98.874 217.86C97.014 215.976 93.006 210.768 89.238 210.882C85.47 210.996 84.144 216.198 84.81 217.302C85.476 218.406 86.472 218.634 87.246 217.746C88.02 216.858 89.016 215.088 90.012 215.754C91.008 216.42 90.456 219.522 88.908 220.074C87.36 220.626 83.148 223.284 84.144 224.838C85.14 226.392 90.792 228.492 94.998 228.822C99.204 229.152 104.412 226.278 107.844 225.72C111.276 225.162 120.582 224.52 124.896 220.962C126.138 219.951 127.091 218.629 127.656 217.13C128.22 215.631 128.378 214.009 128.112 212.43" fill="white"/>
<path d="M120.222 209.442C120.222 209.442 118.008 208.998 114.024 210.99C110.04 212.982 106.38 216.528 104.274 217.746C102.168 218.964 100.734 219.744 98.874 217.86C97.014 215.976 93.006 210.768 89.238 210.882C85.47 210.996 84.144 216.198 84.81 217.302C85.476 218.406 86.472 218.634 87.246 217.746C88.02 216.858 89.016 215.088 90.012 215.754C91.008 216.42 90.456 219.522 88.908 220.074C87.36 220.626 83.148 223.284 84.144 224.838C85.14 226.392 90.792 228.492 94.998 228.822C99.204 229.152 104.412 226.278 107.844 225.72C111.276 225.162 120.582 224.52 124.896 220.962C126.138 219.951 127.091 218.629 127.656 217.13C128.22 215.631 128.378 214.009 128.112 212.43" stroke="#707AAE" stroke-linecap="round" stroke-linejoin="round"/>
<path d="M84.672 222.51C84.672 222.51 84.234 217.638 82.794 217.302C81.354 216.966 81.132 220.302 81.354 223.506C81.576 226.71 83.346 227.604 84.45 226.716C85.554 225.828 84.672 222.51 84.672 222.51Z" fill="white" stroke="#707AAE" stroke-linecap="round" stroke-linejoin="round"/>
<path d="M88.134 223.884C88.134 223.884 88.554 219.006 87.198 218.424C85.842 217.842 85.038 221.076 84.684 224.274C84.33 227.472 85.926 228.66 87.174 227.988C88.422 227.316 88.134 223.884 88.134 223.884Z" fill="white" stroke="#707AAE" stroke-linecap="round" stroke-linejoin="round"/>
<path d="M91.122 225C91.122 225 91.548 220.128 90.186 219.546C88.824 218.964 88.026 222.198 87.678 225.396C87.33 228.594 88.914 229.782 90.162 229.104C91.41 228.426 91.122 225 91.122 225Z" fill="white" stroke="#707AAE" stroke-linecap="round" stroke-linejoin="round"/>
<path d="M98.958 228.6C96.9474 229.527 94.7515 229.983 92.538 229.932C92.4098 229.013 92.3357 228.088 92.316 227.16C92.316 225.96 94.86 220.962 98.628 221.292" fill="white"/>
<path d="M98.958 228.6C96.9474 229.527 94.7515 229.983 92.538 229.932C92.4098 229.013 92.3357 228.088 92.316 227.16C92.316 225.96 94.86 220.962 98.628 221.292" stroke="#707AAE" stroke-linecap="round" stroke-linejoin="round"/>
<path d="M94.296 226.902C94.296 226.902 95.706 223.086 94.542 222.198C93.378 221.31 91.944 223.674 90.942 226.158C89.94 228.642 91.206 230.094 92.526 229.932C93.846 229.77 94.296 226.902 94.296 226.902Z" fill="white" stroke="#707AAE" stroke-linecap="round" stroke-linejoin="round"/>
<path d="M185.292 209.442C185.292 209.442 187.506 208.998 191.496 210.99C195.486 212.982 199.134 216.528 201.24 217.746C203.346 218.964 204.786 219.744 206.67 217.86C208.554 215.976 212.538 210.768 216.3 210.882C220.062 210.996 221.394 216.198 220.734 217.302C220.074 218.406 219.072 218.634 218.298 217.746C217.524 216.858 216.498 215.088 215.526 215.754C214.554 216.42 215.082 219.522 216.636 220.074C218.19 220.626 222.396 223.284 221.394 224.838C220.392 226.392 214.752 228.492 210.546 228.822C206.34 229.152 201.132 226.278 197.694 225.72C194.256 225.162 184.962 224.52 180.642 220.962C179.4 219.951 178.448 218.629 177.884 217.13C177.32 215.631 177.164 214.009 177.432 212.43" fill="white"/>
<path d="M185.292 209.442C185.292 209.442 187.506 208.998 191.496 210.99C195.486 212.982 199.134 216.528 201.24 217.746C203.346 218.964 204.786 219.744 206.67 217.86C208.554 215.976 212.538 210.768 216.3 210.882C220.062 210.996 221.394 216.198 220.734 217.302C220.074 218.406 219.072 218.634 218.298 217.746C217.524 216.858 216.498 215.088 215.526 215.754C214.554 216.42 215.082 219.522 216.636 220.074C218.19 220.626 222.396 223.284 221.394 224.838C220.392 226.392 214.752 228.492 210.546 228.822C206.34 229.152 201.132 226.278 197.694 225.72C194.256 225.162 184.962 224.52 180.642 220.962C179.4 219.951 178.448 218.629 177.884 217.13C177.32 215.631 177.164 214.009 177.432 212.43" stroke="#707AAE" stroke-linecap="round" stroke-linejoin="round"/>
<path d="M220.842 222.51C220.842 222.51 221.286 217.638 222.726 217.302C224.166 216.966 224.388 220.302 224.166 223.506C223.944 226.71 222.174 227.604 221.064 226.716C219.954 225.828 220.842 222.51 220.842 222.51Z" fill="white" stroke="#707AAE" stroke-linecap="round" stroke-linejoin="round"/>
<path d="M217.386 223.884C217.386 223.884 216.96 219.006 218.316 218.424C219.672 217.842 220.482 221.076 220.83 224.274C221.178 227.472 219.6 228.66 218.346 228C217.092 227.34 217.386 223.884 217.386 223.884Z" fill="white" stroke="#707AAE" stroke-linecap="round" stroke-linejoin="round"/>
<path d="M214.392 225C214.392 225 213.972 220.128 215.328 219.546C216.684 218.964 217.494 222.198 217.842 225.396C218.19 228.594 216.6 229.782 215.358 229.104C214.116 228.426 214.392 225 214.392 225Z" fill="white" stroke="#707AAE" stroke-linecap="round" stroke-linejoin="round"/>
<path d="M206.556 228.6C208.574 229.53 210.778 229.986 213 229.932C213.128 229.013 213.202 228.088 213.222 227.16C213.222 225.96 210.672 220.962 206.904 221.292" fill="white"/>
<path d="M206.556 228.6C208.574 229.53 210.778 229.986 213 229.932C213.128 229.013 213.202 228.088 213.222 227.16C213.222 225.96 210.672 220.962 206.904 221.292" stroke="#707AAE" stroke-linecap="round" stroke-linejoin="round"/>
<path d="M211.2 226.902C211.2 226.902 209.79 223.086 210.954 222.198C212.118 221.31 213.546 223.674 214.554 226.158C215.562 228.642 214.29 230.094 212.97 229.932C211.65 229.77 211.2 226.902 211.2 226.902Z" fill="white" stroke="#707AAE" stroke-linecap="round" stroke-linejoin="round"/>
<path d="M163.8 122.4C162.39 120.354 160.2 122.346 159.636 122.958C159.036 122.358 156.882 120.354 155.478 122.4C153.948 124.626 159.588 129.264 159.636 129.24C159.684 129.216 165.312 124.626 163.8 122.4Z" stroke="white" stroke-linecap="round" stroke-linejoin="round"/>
<path d="M149.79 124.236C148.029 121.865 145.656 120.017 142.926 118.89C138.534 117.174 141.396 113.742 143.304 114.69C144.535 115.295 145.811 115.804 147.12 116.214C147.12 116.214 142.158 112.206 141.972 108.774C141.786 105.342 147.12 109.728 147.12 109.728C147.12 109.728 140.634 100.8 142.734 99.24C144.834 97.68 146.736 100.578 148.074 103.056C149.024 104.908 149.852 106.82 150.552 108.78C150.552 108.78 150.174 102.486 152.274 104.394C154.374 106.302 153.036 115.842 153.036 115.842C153.036 115.842 155.898 108.042 157.236 112.242C158.574 116.442 150.366 123.66 149.79 124.236Z" stroke="white" stroke-linecap="round" stroke-linejoin="round"/>
<path d="M149.79 124.236C149.79 124.236 152.844 115.074 146.55 103.236" stroke="white" stroke-linecap="round" stroke-linejoin="round"/>
<path d="M139.32 63.414C137.133 63.3974 134.982 63.9761 133.098 65.088C130.098 66.888 129.378 63.69 130.794 62.988C131.7 62.529 132.57 62.0036 133.398 61.416C133.398 61.416 128.814 62.556 126.702 61.134C124.59 59.712 129.564 58.518 129.564 58.518C129.564 58.518 121.374 58.35 121.41 56.43C121.446 54.51 123.984 54.63 126.048 54.978C127.566 55.2437 129.065 55.6065 130.536 56.064C130.536 56.064 126.648 53.478 128.706 53.064C130.764 52.65 135.81 57.72 135.81 57.72C135.81 57.72 132.468 52.542 135.54 53.622C138.612 54.702 139.236 62.82 139.32 63.414Z" stroke="white" stroke-linecap="round" stroke-linejoin="round"/>
<path d="M139.32 63.414C139.32 63.414 135.276 57.522 125.478 55.962" stroke="white" stroke-linecap="round" stroke-linejoin="round"/>
<path d="M177.216 101.322C177.046 101.325 176.877 101.348 176.712 101.388C176.966 101.146 177.158 100.847 177.272 100.515C177.386 100.183 177.418 99.8291 177.367 99.4822C177.316 99.1353 177.182 98.8058 176.976 98.5215C176.771 98.2371 176.501 98.0062 176.188 97.8481C175.875 97.6901 175.528 97.6095 175.178 97.6132C174.827 97.6169 174.482 97.7048 174.173 97.8694C173.863 98.034 173.597 98.2706 173.398 98.5592C173.199 98.8479 173.072 99.1801 173.028 99.528C172.887 99.2316 172.682 98.9705 172.427 98.7641C172.172 98.5577 171.874 98.4112 171.555 98.3355C171.236 98.2597 170.904 98.2566 170.583 98.3265C170.262 98.3963 169.962 98.5373 169.703 98.7389C169.444 98.9406 169.234 99.1978 169.088 99.4916C168.942 99.7854 168.864 100.108 168.859 100.436C168.855 100.764 168.924 101.089 169.062 101.387C169.2 101.684 169.403 101.947 169.656 102.156C169.373 102.298 169.124 102.499 168.926 102.747C168.728 102.994 168.587 103.281 168.511 103.589C168.435 103.896 168.426 104.216 168.486 104.527C168.546 104.838 168.672 105.132 168.857 105.39C169.041 105.647 169.279 105.862 169.555 106.018C169.83 106.174 170.136 106.269 170.451 106.296C170.767 106.323 171.084 106.281 171.382 106.173C171.68 106.066 171.951 105.895 172.176 105.672C172.226 106.222 172.481 106.732 172.892 107.101C173.303 107.47 173.838 107.67 174.39 107.66C174.942 107.65 175.47 107.431 175.867 107.048C176.265 106.665 176.502 106.145 176.532 105.594C176.753 105.668 176.983 105.708 177.216 105.714C177.798 105.714 178.357 105.483 178.769 105.071C179.181 104.659 179.412 104.1 179.412 103.518C179.412 102.936 179.181 102.377 178.769 101.965C178.357 101.553 177.798 101.322 177.216 101.322Z" stroke="white" stroke-linecap="round" stroke-linejoin="round"/>
<path d="M173.478 104.568C174.316 104.568 174.996 103.888 174.996 103.05C174.996 102.212 174.316 101.532 173.478 101.532C172.64 101.532 171.96 102.212 171.96 103.05C171.96 103.888 172.64 104.568 173.478 104.568Z" stroke="white" stroke-linecap="round" stroke-linejoin="round"/>
<path d="M133.308 118.596C133.136 118.599 132.965 118.621 132.798 118.662C133.053 118.421 133.247 118.121 133.362 117.789C133.477 117.458 133.511 117.103 133.461 116.755C133.41 116.407 133.276 116.077 133.071 115.792C132.866 115.507 132.595 115.275 132.282 115.116C131.968 114.958 131.621 114.877 131.27 114.881C130.918 114.885 130.573 114.973 130.263 115.138C129.953 115.303 129.687 115.541 129.488 115.83C129.289 116.12 129.163 116.453 129.12 116.802C128.905 116.354 128.544 115.993 128.096 115.777C127.649 115.562 127.141 115.505 126.657 115.616C126.173 115.727 125.741 115.999 125.431 116.388C125.122 116.777 124.955 117.259 124.956 117.756C124.956 118.076 125.028 118.392 125.165 118.682C125.302 118.971 125.501 119.227 125.748 119.43C125.465 119.572 125.216 119.773 125.018 120.021C124.821 120.268 124.679 120.555 124.603 120.863C124.527 121.17 124.518 121.49 124.578 121.801C124.638 122.112 124.764 122.406 124.949 122.664C125.133 122.921 125.371 123.135 125.647 123.292C125.922 123.448 126.228 123.543 126.543 123.57C126.859 123.597 127.176 123.555 127.474 123.447C127.772 123.34 128.043 123.169 128.268 122.946C128.326 123.488 128.585 123.99 128.995 124.351C129.404 124.711 129.933 124.906 130.479 124.896C131.024 124.887 131.546 124.673 131.942 124.298C132.338 123.922 132.579 123.412 132.618 122.868C132.84 122.945 133.073 122.986 133.308 122.988C133.89 122.988 134.449 122.757 134.861 122.345C135.273 121.933 135.504 121.374 135.504 120.792C135.504 120.21 135.273 119.651 134.861 119.239C134.449 118.827 133.89 118.596 133.308 118.596Z" stroke="white" stroke-linecap="round" stroke-linejoin="round"/>
<path d="M129.564 121.842C130.402 121.842 131.082 121.162 131.082 120.324C131.082 119.486 130.402 118.806 129.564 118.806C128.726 118.806 128.046 119.486 128.046 120.324C128.046 121.162 128.726 121.842 129.564 121.842Z" stroke="white" stroke-linecap="round" stroke-linejoin="round"/>
<path d="M132.108 91.308C132.001 91.3098 131.894 91.3239 131.79 91.35C131.925 91.2243 132.033 91.0719 132.106 90.9026C132.179 90.7332 132.217 90.5506 132.216 90.366C132.232 90.0094 132.108 89.6606 131.87 89.3947C131.632 89.1287 131.299 88.9669 130.942 88.9441C130.586 88.9213 130.235 89.0393 129.965 89.2727C129.695 89.5061 129.527 89.8362 129.498 90.192C129.41 90.0078 129.282 89.8455 129.124 89.7174C128.965 89.5892 128.779 89.4984 128.581 89.4516C128.382 89.4048 128.175 89.4032 127.976 89.447C127.777 89.4908 127.59 89.5788 127.429 89.7045C127.268 89.8302 127.138 89.9905 127.047 90.1734C126.957 90.3563 126.909 90.5572 126.906 90.7613C126.904 90.9653 126.947 91.1673 127.033 91.3523C127.12 91.5373 127.246 91.7006 127.404 91.83C127.179 91.9397 126.988 92.1101 126.855 92.3222C126.721 92.5342 126.65 92.7794 126.648 93.03C126.64 93.306 126.715 93.578 126.865 93.8102C127.014 94.0424 127.23 94.224 127.485 94.3311C127.739 94.4383 128.02 94.4659 128.291 94.4103C128.561 94.3548 128.808 94.2187 129 94.02C129.038 94.3575 129.2 94.6687 129.456 94.8925C129.711 95.1164 130.041 95.2367 130.381 95.23C130.72 95.2232 131.045 95.0898 131.291 94.856C131.538 94.6222 131.688 94.3048 131.712 93.966C131.848 94.0167 131.993 94.0431 132.138 94.044C132.501 94.044 132.849 93.8999 133.105 93.6433C133.362 93.3868 133.506 93.0388 133.506 92.676C133.506 92.3132 133.362 91.9653 133.105 91.7087C132.849 91.4522 132.501 91.308 132.138 91.308H132.108Z" stroke="white" stroke-linecap="round" stroke-linejoin="round"/>
<path d="M129.78 93.33C130.304 93.33 130.728 92.9056 130.728 92.382C130.728 91.8585 130.304 91.434 129.78 91.434C129.256 91.434 128.832 91.8585 128.832 92.382C128.832 92.9056 129.256 93.33 129.78 93.33Z" stroke="white" stroke-linecap="round" stroke-linejoin="round"/>
<path d="M119.742 133.2C119.637 133.202 119.532 133.216 119.43 133.242C119.563 133.115 119.669 132.962 119.741 132.793C119.813 132.624 119.85 132.442 119.85 132.258C119.848 131.913 119.716 131.581 119.479 131.33C119.243 131.079 118.92 130.927 118.575 130.905C118.231 130.883 117.891 130.992 117.624 131.211C117.357 131.43 117.184 131.742 117.138 132.084C117.049 131.901 116.921 131.74 116.763 131.614C116.604 131.487 116.419 131.397 116.221 131.351C116.023 131.305 115.817 131.304 115.619 131.347C115.421 131.391 115.235 131.479 115.074 131.604C114.914 131.729 114.784 131.888 114.693 132.07C114.603 132.251 114.554 132.451 114.55 132.654C114.547 132.857 114.589 133.059 114.673 133.243C114.758 133.428 114.882 133.592 115.038 133.722C114.863 133.811 114.709 133.936 114.586 134.09C114.464 134.243 114.377 134.422 114.33 134.613C114.283 134.803 114.278 135.002 114.315 135.195C114.352 135.388 114.43 135.57 114.545 135.73C114.659 135.89 114.806 136.023 114.977 136.12C115.147 136.218 115.337 136.277 115.532 136.294C115.728 136.312 115.925 136.286 116.11 136.22C116.295 136.154 116.463 136.049 116.604 135.912C116.642 136.25 116.804 136.561 117.06 136.785C117.315 137.008 117.645 137.129 117.985 137.122C118.324 137.115 118.649 136.982 118.895 136.748C119.142 136.514 119.292 136.197 119.316 135.858C119.453 135.908 119.597 135.934 119.742 135.936C120.105 135.936 120.453 135.792 120.709 135.535C120.966 135.279 121.11 134.931 121.11 134.568C121.11 134.205 120.966 133.857 120.709 133.601C120.453 133.344 120.105 133.2 119.742 133.2Z" stroke="white" stroke-linecap="round" stroke-linejoin="round"/>
<path d="M117.414 135.222C117.938 135.222 118.362 134.798 118.362 134.274C118.362 133.75 117.938 133.326 117.414 133.326C116.89 133.326 116.466 133.75 116.466 134.274C116.466 134.798 116.89 135.222 117.414 135.222Z" stroke="white" stroke-linecap="round" stroke-linejoin="round"/>
<path d="M146.298 68.574C146.193 68.5758 146.088 68.5899 145.986 68.616C146.143 68.4655 146.262 68.2796 146.332 68.0737C146.403 67.8679 146.423 67.6482 146.391 67.4329C146.359 67.2177 146.277 67.0132 146.149 66.8366C146.022 66.66 145.855 66.5164 145.661 66.4179C145.467 66.3194 145.252 66.2688 145.034 66.2703C144.817 66.2719 144.603 66.3255 144.41 66.4268C144.218 66.528 144.052 66.674 143.927 66.8523C143.803 67.0307 143.723 67.2363 143.694 67.452C143.561 67.1716 143.336 66.9452 143.056 66.8102C142.777 66.6753 142.459 66.6398 142.157 66.7099C141.854 66.7799 141.585 66.9511 141.393 67.1952C141.201 67.4393 141.099 67.7416 141.102 68.052C141.102 68.2507 141.146 68.447 141.231 68.6265C141.316 68.806 141.44 68.9644 141.594 69.09C141.317 69.2252 141.094 69.4503 140.962 69.7285C140.829 70.0067 140.795 70.3217 140.865 70.6219C140.934 70.922 141.104 71.1897 141.345 71.3812C141.587 71.5727 141.886 71.6766 142.194 71.676C142.371 71.6762 142.547 71.6413 142.711 71.5733C142.874 71.5054 143.023 71.4057 143.148 71.28C143.185 71.6175 143.347 71.9289 143.602 72.1531C143.857 72.3774 144.186 72.4984 144.526 72.4924C144.865 72.4864 145.19 72.3538 145.437 72.1207C145.684 71.8875 145.835 71.5706 145.86 71.232C145.997 71.2793 146.141 71.3056 146.286 71.31C146.649 71.31 146.997 71.1659 147.253 70.9093C147.51 70.6528 147.654 70.3048 147.654 69.942C147.654 69.5792 147.51 69.2312 147.253 68.9747C146.997 68.7181 146.649 68.574 146.286 68.574H146.298Z" stroke="white" stroke-linecap="round" stroke-linejoin="round"/>
<path d="M143.97 70.596C144.494 70.596 144.918 70.1716 144.918 69.648C144.918 69.1244 144.494 68.7 143.97 68.7C143.446 68.7 143.022 69.1244 143.022 69.648C143.022 70.1716 143.446 70.596 143.97 70.596Z" stroke="white" stroke-linecap="round" stroke-linejoin="round"/>
<path d="M175.608 77.208C175.501 77.2098 175.394 77.2239 175.29 77.25C175.425 77.1242 175.533 76.9719 175.606 76.8026C175.679 76.6332 175.717 76.4505 175.716 76.266C175.732 75.9094 175.608 75.5606 175.37 75.2946C175.132 75.0287 174.799 74.8669 174.442 74.8441C174.086 74.8213 173.735 74.9393 173.465 75.1727C173.195 75.4061 173.027 75.7362 172.998 76.092C172.91 75.9078 172.782 75.7455 172.624 75.6174C172.465 75.4892 172.279 75.3984 172.081 75.3516C171.882 75.3048 171.675 75.3032 171.476 75.347C171.277 75.3908 171.09 75.4788 170.929 75.6045C170.768 75.7302 170.638 75.8905 170.547 76.0734C170.457 76.2563 170.409 76.4572 170.406 76.6613C170.404 76.8653 170.447 77.0673 170.533 77.2523C170.62 77.4373 170.746 77.6005 170.904 77.73C170.679 77.8397 170.488 78.0101 170.355 78.2222C170.221 78.4342 170.15 78.6794 170.148 78.93C170.148 79.1988 170.228 79.4614 170.377 79.6852C170.526 79.909 170.737 80.084 170.985 80.1883C171.233 80.2926 171.506 80.3217 171.77 80.2718C172.034 80.222 172.277 80.0954 172.47 79.908C172.508 80.2455 172.67 80.5567 172.926 80.7805C173.181 81.0044 173.511 81.1247 173.851 81.118C174.19 81.1112 174.515 80.9778 174.761 80.744C175.008 80.5102 175.158 80.1928 175.182 79.854C175.318 79.9046 175.463 79.931 175.608 79.932C175.971 79.932 176.319 79.7879 176.575 79.5313C176.832 79.2748 176.976 78.9268 176.976 78.564C176.976 78.2012 176.832 77.8532 176.575 77.5967C176.319 77.3401 175.971 77.196 175.608 77.196V77.208Z" stroke="white" stroke-linecap="round" stroke-linejoin="round"/>
<path d="M173.28 79.23C173.804 79.23 174.228 78.8056 174.228 78.282C174.228 77.7585 173.804 77.334 173.28 77.334C172.756 77.334 172.332 77.7585 172.332 78.282C172.332 78.8056 172.756 79.23 173.28 79.23Z" stroke="white" stroke-linecap="round" stroke-linejoin="round"/>
<path d="M157.8 94.8C158.564 92.7248 159.501 90.7177 160.602 88.8C162 86.598 166.998 86.202 166.998 86.202C166.998 86.202 164.4 90.402 163.2 92.4C162 94.398 157.8 94.8 157.8 94.8Z" stroke="white" stroke-linecap="round" stroke-linejoin="round"/>
<path d="M157.8 94.8C157.8 94.8 161.598 89.4 166.002 86.802" stroke="white" stroke-linecap="round" stroke-linejoin="round"/>
<path d="M100.122 114.264C102.279 113.775 104.472 113.468 106.68 113.346C109.284 113.346 112.35 117.294 112.35 117.294C112.35 117.294 107.406 117.402 105.078 117.486C102.75 117.57 100.122 114.264 100.122 114.264Z" stroke="white" stroke-linecap="round" stroke-linejoin="round"/>
<path d="M100.122 114.264C100.122 114.264 106.722 114.51 111.3 116.778" stroke="white" stroke-linecap="round" stroke-linejoin="round"/>
<path d="M189.138 109.698C189.138 109.698 188.166 105.18 186.048 105.444C183.93 105.708 185.64 111.024 185.64 111.024C185.64 111.024 182.856 111.816 182.988 113.01C183.12 114.204 185.1 113.208 186.816 112.944C186.816 112.944 186.126 116.046 187.98 116.544C189.834 117.042 189.48 112.452 189.48 112.452C189.48 112.452 193.62 113.298 194.784 111.444C196.134 109.314 190.86 109.428 189.138 109.698Z" stroke="white" stroke-linecap="round" stroke-linejoin="round"/>
<path d="M189.138 108.306C189.138 108.306 185.274 114.18 185.502 114.798C185.73 115.416 189.912 109.698 190.608 109.002C191.304 108.306 190.068 107.298 189.138 108.306Z" fill="#707AAE" stroke="white" stroke-linecap="round" stroke-linejoin="round"/>
<path d="M190.608 109.002C190.608 109.002 193.158 106.68 194.394 107.61C195.63 108.54 194.166 108.69 194.01 108.384" stroke="white" stroke-linecap="round" stroke-linejoin="round"/>
<path d="M189.372 107.838C189.372 107.838 190.068 104.436 189.294 103.74C188.52 103.044 188.208 103.974 188.754 104.514" stroke="white" stroke-linecap="round" stroke-linejoin="round"/>
<path d="M152.4 81.336C150.336 78.336 147.144 81.258 146.286 82.152C145.422 81.258 142.23 78.324 140.166 81.336C137.916 84.606 146.208 91.422 146.286 91.392C146.364 91.362 154.638 84.6 152.4 81.336Z" stroke="white" stroke-linecap="round" stroke-linejoin="round"/>
<path d="M123.762 69.636C121.626 68.364 120.492 71.082 120.21 71.874C119.424 71.568 116.61 70.674 116.196 73.11C115.74 75.768 122.796 77.628 122.838 77.586C122.88 77.544 126.078 71.016 123.762 69.636Z" stroke="white" stroke-linecap="round" stroke-linejoin="round"/>
<path d="M103.848 94.38C101.37 94.194 101.562 97.134 101.67 97.98C100.83 98.058 97.914 98.496 98.628 100.872C99.402 103.458 106.554 101.97 106.566 101.916C106.578 101.862 106.536 94.584 103.848 94.38Z" stroke="white" stroke-linecap="round" stroke-linejoin="round"/>
<path d="M182.502 133.248C184.47 131.73 182.364 129.648 181.728 129.12C182.328 128.52 184.182 126.228 182.064 124.92C179.76 123.51 175.428 129.39 175.464 129.438C175.5 129.486 180.366 134.892 182.502 133.248Z" stroke="white" stroke-linecap="round" stroke-linejoin="round"/>
<path d="M171.03 92.868C172.374 91.6203 173.877 90.5552 175.5 89.7" stroke="white" stroke-linecap="round" stroke-linejoin="round"/>
<path d="M159.9 117C159.9 117 161.304 105.054 167.88 96.354" stroke="white" stroke-linecap="round" stroke-linejoin="round"/>
<path d="M142.164 122.07C142.731 122.948 143.244 123.86 143.7 124.8" stroke="white" stroke-linecap="round" stroke-linejoin="round"/>
<path d="M119.826 107.892C120.689 108.582 121.66 109.125 122.7 109.5C127.446 111.3 134.07 113.1 139.224 118.392" stroke="white" stroke-linecap="round" stroke-linejoin="round"/>
<path d="M117.6 102.3C117.367 103.558 117.579 104.859 118.2 105.978" stroke="white" stroke-linecap="round" stroke-linejoin="round"/>
<path d="M173.046 71.136C174.554 69.7654 175.793 68.1253 176.7 66.3" stroke="white" stroke-linecap="round" stroke-linejoin="round"/>
<path d="M155.268 88.668C156.245 86.2129 157.606 83.9284 159.3 81.9C162.714 77.838 166.392 75.9 169.662 73.71" stroke="white" stroke-linecap="round" stroke-linejoin="round"/>
<path d="M153.3 98.4C153.3 96.991 153.43 95.5849 153.69 94.2" stroke="white" stroke-linecap="round" stroke-linejoin="round"/>
<path d="M172.008 122.748C174.504 121.488 178.008 120.54 182.7 120.9C194.4 121.8 199.8 125.4 204.9 118.5" stroke="white" stroke-linecap="round" stroke-linejoin="round"/>
<path d="M166.8 127.2C167.339 126.367 167.993 125.616 168.744 124.968" stroke="white" stroke-linecap="round" stroke-linejoin="round"/>
<path d="M191.676 95.61H190.074C189.108 95.61 187.344 94.488 188.148 93.522C188.952 92.556 191.676 94.806 191.676 94.806L189.276 87.264L194.412 84.864L196.5 91.926C196.5 91.926 193.29 90.642 192.966 92.082C192.642 93.522 195.054 93.366 196.5 92.724" stroke="white" stroke-linecap="round" stroke-linejoin="round"/>
<path d="M189.75 88.866L194.724 86.46" stroke="white" stroke-linecap="round" stroke-linejoin="round"/>
<path d="M202.71 93.21H201.654C201.012 93.21 199.854 92.466 200.376 91.83C200.898 91.194 202.71 92.676 202.71 92.676L201.12 87.69L204.516 86.1L205.896 90.768C205.896 90.768 203.772 89.922 203.562 90.876C203.352 91.83 204.942 91.722 205.896 91.296" stroke="white" stroke-linecap="round" stroke-linejoin="round"/>
<path d="M201.438 88.752L204.726 87.162" stroke="white" stroke-linecap="round" stroke-linejoin="round"/>
<path d="M109.41 87.81H108.354C107.712 87.81 106.554 87.066 107.076 86.43C107.598 85.794 109.41 87.276 109.41 87.276L107.82 82.29L111.216 80.7L112.596 85.368C112.596 85.368 110.472 84.522 110.262 85.476C110.052 86.43 111.642 86.322 112.596 85.896" stroke="white" stroke-linecap="round" stroke-linejoin="round"/>
<path d="M108.138 83.352L111.426 81.762" stroke="white" stroke-linecap="round" stroke-linejoin="round"/>
<path d="M210 104.676C210 104.676 214.344 103.368 213.654 100.8C213.054 98.628 211.026 100.8 211.026 100.8C211.026 100.8 212.286 98.76 210.426 97.8C208.566 96.84 208.026 99.468 208.026 99.468C208.026 99.468 207.654 97.032 205.962 98.154C204.27 99.276 207.84 105.288 207.84 105.288L210 104.676Z" stroke="white" stroke-linecap="round" stroke-linejoin="round"/>
<path d="M204.432 113.946C206.131 111.324 207.28 108.385 207.81 105.306L209.658 99.594" stroke="white" stroke-linecap="round" stroke-linejoin="round"/>
<path d="M206.682 109.44C206.862 108.258 206.595 107.051 205.932 106.056C205.27 104.943 204.449 103.933 203.496 103.056C203.496 103.056 202.932 105.12 203.304 106.434C203.676 107.748 206.682 109.44 206.682 109.44Z" stroke="white" stroke-linecap="round" stroke-linejoin="round"/>
<path d="M206.124 110.94C206.854 110.313 207.79 109.98 208.752 110.004H212.316C212.316 110.004 207.81 113.568 206.124 110.94Z" stroke="white" stroke-linecap="round" stroke-linejoin="round"/>
<path d="M207.234 100.56L207.798 105L210.948 102.66" stroke="white" stroke-linecap="round" stroke-linejoin="round"/>
<path d="M108.882 124.038C108.882 124.038 106.038 120.51 103.92 122.112C102.12 123.474 104.91 124.548 104.91 124.548C104.91 124.548 102.54 124.152 102.378 126.246C102.216 128.34 104.82 127.8 104.82 127.8C104.82 127.8 102.702 129.066 104.382 130.2C106.062 131.334 110.286 125.772 110.286 125.772L108.882 124.038Z" stroke="white" stroke-linecap="round" stroke-linejoin="round"/>
<path d="M119.556 125.688C116.49 125.099 113.336 125.14 110.286 125.808L104.286 126.252" stroke="white" stroke-linecap="round" stroke-linejoin="round"/>
<path d="M114.534 125.298C113.372 125.576 112.356 126.278 111.684 127.266C110.903 128.3 110.276 129.442 109.824 130.656C109.824 130.656 111.948 130.404 113.022 129.558C114.096 128.712 114.534 125.298 114.534 125.298Z" stroke="white" stroke-linecap="round" stroke-linejoin="round"/>
<path d="M116.136 125.256C115.279 124.817 114.616 124.075 114.276 123.174C113.646 121.608 112.938 119.868 112.938 119.868C112.938 119.868 117.936 122.7 116.136 125.256Z" stroke="white" stroke-linecap="round" stroke-linejoin="round"/>
<path d="M106.104 128.13L110.004 125.934L106.65 123.9" stroke="white" stroke-linecap="round" stroke-linejoin="round"/>
<path d="M137.904 108.954C137.725 108.544 137.524 108.144 137.304 107.754C136.23 105.78 134.652 104.046 132.174 104.4C127.974 105 135.774 111.6 137.178 111.798C138.906 112.044 138.462 110.286 137.904 108.954Z" fill="white"/>
<path d="M134.706 84.156C134.49 83.646 134.262 83.202 134.106 82.956C133.026 80.976 131.454 79.248 128.976 79.602C124.776 80.202 132.576 86.802 133.98 87C135.708 87.246 135.264 85.482 134.706 84.156Z" fill="white"/>
<path d="M176.922 111.39C176.388 111.546 175.92 111.726 175.662 111.828C173.574 112.668 171.672 114.036 171.738 116.538C171.852 120.78 179.304 113.79 179.664 112.416C180.102 110.754 178.302 111 176.922 111.39Z" fill="white"/>
<path d="M182.322 88.992C181.895 89.116 181.474 89.2622 181.062 89.43C178.974 90.27 177.072 91.632 177.138 94.134C177.252 98.376 184.704 91.386 185.064 90.018C185.502 88.35 183.702 88.59 182.322 88.992Z" fill="white"/>
<path d="M213.072 87.6C212.646 87.722 212.227 87.8683 211.818 88.038C209.73 88.878 207.828 90.24 207.894 92.742C208.008 96.984 215.46 89.994 215.82 88.626C216.258 86.94 214.458 87.18 213.072 87.6Z" fill="white"/>
<path d="M128.754 108C128.671 107.795 128.576 107.595 128.472 107.4C127.95 106.44 127.182 105.6 125.97 105.762C123.918 106.056 127.728 109.278 128.412 109.362C129.246 109.506 129.03 108.648 128.754 108Z" fill="white"/>
<path d="M114.108 92.436C113.904 92.262 113.7 92.118 113.592 92.04C112.686 91.41 111.624 91.002 110.622 91.698C108.918 92.898 113.766 94.05 114.42 93.834C115.2 93.564 114.642 92.898 114.108 92.436Z" fill="white"/>
<path d="M135.756 99.798C135.673 99.593 135.579 99.3927 135.474 99.198C134.946 98.232 134.178 97.398 132.972 97.56C130.92 97.854 134.73 101.07 135.414 101.16C136.242 101.31 136.026 100.446 135.756 99.798Z" fill="white"/>
<path d="M100.434 86.286C100.352 86.0806 100.258 85.8803 100.152 85.686C99.63 84.72 98.862 83.886 97.65 84.048C95.598 84.342 99.408 87.564 100.092 87.648C100.926 87.792 100.71 86.934 100.434 86.286Z" fill="white"/>
<path d="M109.98 107.304C109.786 107.187 109.586 107.08 109.38 106.986C108.396 106.506 107.28 106.266 106.38 107.106C104.88 108.54 109.854 108.948 110.466 108.63C111.258 108.246 110.58 107.67 109.98 107.304Z" fill="white"/>
<path d="M133.956 76.2C133.873 75.9952 133.778 75.7949 133.674 75.6C133.146 74.64 132.378 73.8 131.172 73.962C129.12 74.256 132.93 77.478 133.614 77.562C134.442 77.706 134.226 76.848 133.956 76.2Z" fill="white"/>
<path d="M156.522 100.584C156.36 100.794 156.222 100.998 156.15 101.112C155.55 102.036 155.184 103.122 155.922 104.112C157.17 105.768 158.154 100.878 157.908 100.23C157.608 99.426 156.96 100.032 156.522 100.584Z" fill="white"/>
<path d="M166.122 113.184C165.96 113.394 165.822 113.598 165.75 113.712C165.15 114.636 164.784 115.722 165.522 116.712C166.77 118.368 167.754 113.478 167.508 112.83C167.208 112.026 166.56 112.632 166.122 113.184Z" fill="white"/>
<path d="M179.49 80.4C179.287 80.4553 179.086 80.5214 178.89 80.598C177.864 80.988 176.922 81.636 176.928 82.854C176.928 84.924 180.648 81.594 180.84 80.928C181.05 80.088 180.174 80.184 179.49 80.4Z" fill="white"/>
<path d="M156.318 72.858C156.126 73.044 155.958 73.224 155.868 73.326C155.142 74.148 154.608 75.162 155.19 76.236C156.168 78.036 157.884 73.38 157.746 72.708C157.572 71.88 156.834 72.378 156.318 72.858Z" fill="white"/>
<path d="M114.948 115.2C115.104 115.349 115.268 115.489 115.44 115.62C116.31 116.298 117.354 116.76 118.392 116.118C120.15 115.032 115.392 113.604 114.708 113.79C113.898 114 114.438 114.702 114.948 115.2Z" fill="white"/>
<path d="M189.912 80.622C189.648 80.622 189.402 80.622 189.264 80.622C188.166 80.688 187.074 81.024 186.714 82.188C186.114 84.168 190.644 82.098 191.022 81.522C191.484 80.82 190.62 80.652 189.912 80.622Z" fill="white"/>
</svg>
