<svg width="13" height="13" viewBox="0 0 13 13" fill="none" xmlns="http://www.w3.org/2000/svg">
<path d="M5.44376 1.37041L2.18293 3.49916C1.13751 4.18166 1.13751 5.70916 2.18293 6.39166L5.44376 8.52041C6.02876 8.90499 6.99293 8.90499 7.57793 8.52041L10.8225 6.39166C11.8625 5.70916 11.8625 4.18707 10.8225 3.50457L7.57793 1.37582C6.99293 0.985822 6.02876 0.985822 5.44376 1.37041Z" stroke="#7F8081" stroke-width="1.5" stroke-linecap="round" stroke-linejoin="round"/>
<path d="M3.04961 7.08496L3.04419 9.62538C3.04419 10.3133 3.57502 11.05 4.22502 11.2666L5.95294 11.8408C6.25086 11.9383 6.74377 11.9383 7.04711 11.8408L8.77502 11.2666C9.42502 11.05 9.95586 10.3133 9.95586 9.62538V7.11204" stroke="#7F8081" stroke-width="1.5" stroke-linecap="round" stroke-linejoin="round"/>
<path d="M11.5917 8.125V4.875" stroke="#7F8081" stroke-width="1.5" stroke-linecap="round" stroke-linejoin="round"/>
</svg>
