<svg width="13" height="13" viewBox="0 0 13 13" fill="none" xmlns="http://www.w3.org/2000/svg">
<path d="M6.49998 9.85836C7.6966 9.85836 8.66665 8.88831 8.66665 7.69169C8.66665 6.49507 7.6966 5.52502 6.49998 5.52502C5.30336 5.52502 4.33331 6.49507 4.33331 7.69169C4.33331 8.88831 5.30336 9.85836 6.49998 9.85836Z" stroke="#7F8081" stroke-width="1.5" stroke-miterlimit="10" stroke-linecap="round" stroke-linejoin="round"/>
<path d="M6.6354 7.01453V7.51828C6.6354 7.70786 6.5379 7.88661 6.36998 7.98411L5.95831 8.23328" stroke="#7F8081" stroke-width="1.5" stroke-miterlimit="10" stroke-linecap="round" stroke-linejoin="round"/>
<path d="M4.33334 11.9167H8.66667C10.8442 11.9167 11.2342 11.0446 11.3479 9.98292L11.7542 5.64958C11.9004 4.32792 11.5213 3.25 9.20834 3.25H3.79167C1.47876 3.25 1.09959 4.32792 1.24584 5.64958L1.65209 9.98292C1.76584 11.0446 2.15584 11.9167 4.33334 11.9167Z" stroke="#7F8081" stroke-width="1.5" stroke-miterlimit="10" stroke-linecap="round" stroke-linejoin="round"/>
<path d="M4.33331 3.25004V2.81671C4.33331 1.85796 4.33331 1.08337 6.06665 1.08337H6.93331C8.66665 1.08337 8.66665 1.85796 8.66665 2.81671V3.25004" stroke="#7F8081" stroke-width="1.5" stroke-miterlimit="10" stroke-linecap="round" stroke-linejoin="round"/>
<path d="M11.7271 5.95837C10.79 6.64087 9.75004 7.11754 8.67212 7.38837" stroke="#7F8081" stroke-width="1.5" stroke-miterlimit="10" stroke-linecap="round" stroke-linejoin="round"/>
<path d="M1.41919 6.10461C2.32377 6.72211 3.30961 7.16086 4.33336 7.41003" stroke="#7F8081" stroke-width="1.5" stroke-miterlimit="10" stroke-linecap="round" stroke-linejoin="round"/>
</svg>
